<?xml version="1.0" encoding="UTF-8"?>
<svg version="1.1" xmlns="http://www.w3.org/2000/svg" width="1536" height="1024">
<path d="M0 0 C506.88 0 1013.76 0 1536 0 C1536 337.92 1536 675.84 1536 1024 C1029.12 1024 522.24 1024 0 1024 C0 686.08 0 348.16 0 0 Z " fill="#FDFDFD" transform="translate(0,0)"/>
<path d="M0 0 C4.21350308 0.06107872 8.42700405 0.05546822 12.64087558 0.0586586 C19.69214236 0.07331151 26.74182357 0.13262386 33.79250216 0.22345352 C42.83582609 0.33971806 51.87789212 0.38043747 60.92188239 0.39818192 C68.73226371 0.41409254 76.54237355 0.46402874 84.35255957 0.5195694 C86.85091653 0.53592518 89.34926409 0.54764586 91.84764934 0.55875015 C95.76425663 0.57834027 99.68010408 0.61917916 103.59633517 0.67650223 C105.0309724 0.69455474 106.46571152 0.70593963 107.90045619 0.7101326 C109.8595033 0.71714272 111.81839746 0.75124779 113.77713656 0.78668594 C114.8722282 0.79858459 115.96731984 0.81048325 117.09559608 0.82274246 C120.72003832 1.47012657 122.39711458 2.83655017 125.03884006 5.34845352 C127.29391769 8.61221154 127.30651377 11.48838842 127.34523654 15.39874649 C127.36122394 16.62036484 127.37721133 17.84198318 127.3936832 19.10062027 C127.40172725 21.07568054 127.40172725 21.07568054 127.40993381 23.09064102 C127.41890578 24.4606066 127.42802773 25.8305712 127.43729281 27.20053482 C127.45376526 30.07034049 127.4614797 32.94002975 127.46437716 35.8098793 C127.46975947 39.47756574 127.50743819 43.14414998 127.55312133 46.81152534 C127.58294367 49.64094358 127.59010181 52.47009802 127.59110332 55.29965973 C127.5973264 57.30601361 127.62677132 59.31225226 127.65662265 61.31839371 C127.60635705 71.47387694 127.60635705 71.47387694 124.87892795 75.0989418 C118.57889072 80.08893089 111.9918918 79.6292589 104.30779147 79.58896255 C103.11843474 79.5906714 101.929078 79.59238025 100.70368016 79.59414089 C97.41069074 79.59686233 94.11793985 79.59062421 90.82497931 79.58058476 C87.27085944 79.57193858 83.71674678 79.57487125 80.16261935 79.57638931 C74.00760923 79.57743742 67.85264154 79.57116853 61.69764209 79.55991364 C52.7985796 79.5436516 43.8995376 79.53844991 35.00046186 79.53593765 C20.56190833 79.53156165 6.12337741 79.51825513 -8.31516385 79.49933243 C-22.33990228 79.48097117 -36.36463457 79.46681586 -50.3893826 79.4583168 C-51.25403498 79.45779136 -52.11868735 79.45726591 -53.00954132 79.45672454 C-57.34729814 79.45411444 -61.685055 79.45158703 -66.02281189 79.44910073 C-102.00227721 79.4283712 -137.98171681 79.39314825 -173.96115994 79.34845352 C-173.96115994 78.68845352 -173.96115994 78.02845352 -173.96115994 77.34845352 C-173.04979276 76.89857071 -172.13842557 76.4486879 -171.19944119 75.98517227 C-162.92667639 71.88402311 -154.7072346 67.6874408 -146.52365994 63.41095352 C-145.59400418 62.92650772 -144.66434842 62.44206192 -143.70652127 61.94293594 C-142.8430911 61.49023331 -141.97966092 61.03753067 -141.09006619 60.57110977 C-139.93099759 59.96408218 -139.93099759 59.96408218 -138.74851346 59.34479141 C-136.99644193 58.47484857 -136.99644193 58.47484857 -135.96115994 57.34845352 C-134.3869368 57.20323275 -132.80676603 57.12130852 -131.22678494 57.06720352 C-130.25998807 57.02982071 -129.29319119 56.9924379 -128.29709744 56.95392227 C-127.27873807 56.91911758 -126.26037869 56.8843129 -125.21115994 56.84845352 C-123.21623702 56.77922098 -121.22143406 56.7064208 -119.22678494 56.62970352 C-118.33765409 56.59941055 -117.44852323 56.56911758 -116.53244901 56.53790665 C-114.00435051 56.40920695 -114.00435051 56.40920695 -111.73996854 55.88068008 C-107.59928293 55.08761255 -103.43607021 54.85482946 -99.23459744 54.55157852 C-98.24607282 54.47769913 -97.25754819 54.40381973 -96.23906827 54.32770157 C-92.93830785 54.08170862 -89.63724106 53.84010175 -86.33615994 53.59845352 C-84.01883635 53.42655153 -81.70153536 53.25434448 -79.38425565 53.08185196 C-74.34148237 52.70692079 -69.29858195 52.3337609 -64.25559354 51.96173477 C-53.95272197 51.20135151 -43.65065331 50.43023896 -33.34853482 49.65973282 C-18.55294052 48.55330259 -3.75702814 47.45125115 11.03884006 46.34845352 C-48.36115994 45.35845352 -48.36115994 45.35845352 -108.96115994 44.34845352 C-108.96115994 43.68845352 -108.96115994 43.02845352 -108.96115994 42.34845352 C-108.10699491 41.89631485 -107.25282987 41.44417618 -106.37278104 40.97833633 C-85.80474185 30.09984107 -85.80474185 30.09984107 -65.33615994 19.03595352 C-64.60173893 18.64624909 -63.86731791 18.25654467 -63.11064172 17.85503101 C-58.71031054 15.49446131 -54.47682829 13.07516766 -50.38146329 10.21417618 C-34.2455326 -0.55943134 -18.64220686 -0.32351483 0 0 Z " fill="#43AF4D" transform="translate(698.9611599445343,471.6515464782715)"/>
<path d="M0 0 C10.74187461 8.49310834 17.53559077 19.10619313 20.08984375 32.65234375 C21.25785936 43.58055846 20.23078314 53.4174249 16.08984375 63.65234375 C15.62707031 64.8228125 15.16429687 65.99328125 14.6875 67.19921875 C7.69895155 84.23104464 -1.00379647 100.80233242 -11.63183594 115.83691406 C-13.50511446 118.4972844 -15.33346783 121.18788815 -17.16772461 123.87524414 C-18.55763377 125.90635776 -19.95707937 127.93054936 -21.359375 129.953125 C-22.94946914 132.24874586 -24.50987519 134.55574551 -26.0546875 136.8828125 C-26.66699219 137.79675781 -27.27929688 138.71070313 -27.91015625 139.65234375 C-28.68359375 140.82796875 -28.68359375 140.82796875 -29.47265625 142.02734375 C-29.94703125 142.56359375 -30.42140625 143.09984375 -30.91015625 143.65234375 C-31.90015625 143.65234375 -32.89015625 143.65234375 -33.91015625 143.65234375 C-35.71801124 141.3558793 -37.31950361 139.09384972 -38.91015625 136.65234375 C-39.89929975 135.17027927 -40.88889534 133.68851644 -41.87890625 132.20703125 C-42.38292969 131.44616211 -42.88695312 130.68529297 -43.40625 129.90136719 C-44.80987998 127.80230236 -46.24109786 125.7271556 -47.69140625 123.66015625 C-57.9976525 108.97019924 -67.24792033 93.89049426 -74.91015625 77.65234375 C-75.39226563 76.64429688 -75.874375 75.63625 -76.37109375 74.59765625 C-84.01255335 58.24956389 -88.13602733 42.09116141 -82.890625 24.26171875 C-81.32404654 20.09249799 -79.32098126 16.38803657 -76.91015625 12.65234375 C-76.55308594 12.0490625 -76.19601562 11.44578125 -75.828125 10.82421875 C-69.0524971 0.19390501 -56.38688025 -7.17532411 -44.41015625 -10.22265625 C-28.35264749 -13.44177722 -13.33537527 -9.47703884 0 0 Z " fill="#1660A8" transform="translate(949.91015625,214.34765625)"/>
<path d="M0 0 C4.66405333 4.66405333 6.88176651 8.93914906 7.0625 15.5625 C7.50916631 22.94967357 12.35870156 29.66178999 17.7265625 34.55859375 C24.32903941 38.52749841 32.89271201 39.13679329 40.4375 39.40625 C43.31825708 39.89901108 44.69747243 40.82021957 46.8125 42.8125 C47.8125 45.6875 47.8125 45.6875 47.8125 48.8125 C46.04210551 51.55966387 44.74958156 53.34395922 41.8125 54.8125 C27.60154004 55.88138848 13.07484259 54.41790946 1.8125 44.8125 C0.46395682 43.49455204 -0.87324284 42.1646404 -2.1875 40.8125 C-3.1969696 43.89281416 -4.19339621 46.9771959 -5.1875 50.0625 C-5.47367188 50.93519531 -5.75984375 51.80789063 -6.0546875 52.70703125 C-6.32539062 53.55136719 -6.59609375 54.39570313 -6.875 55.265625 C-7.12636719 56.04067383 -7.37773438 56.81572266 -7.63671875 57.61425781 C-8.34952838 60.08147832 -8.34952838 60.08147832 -8.1875 63.8125 C-6.3584474 64.32057017 -4.52937098 64.8285547 -2.70019531 65.33618164 C-1.09238175 65.78318011 0.51503359 66.23161314 2.12207031 66.68139648 C6.3414995 67.86016156 10.56439682 69.01561732 14.8046875 70.1171875 C16.00182373 70.43393433 16.00182373 70.43393433 17.22314453 70.75708008 C18.74521612 71.15912174 20.26956894 71.5526559 21.79638672 71.9362793 C27.34651731 73.41848164 31.86166943 75.536531 35.6875 80 C38.58649358 87.24748394 36.36047816 94.6227092 34.0625 101.75 C33.78809082 102.63099365 33.51368164 103.5119873 33.23095703 104.41967773 C31.60904673 109.55319032 29.86788615 114.60258043 27.7578125 119.55859375 C25.93353864 123.90820539 24.39960234 128.37199025 22.8125 132.8125 C23.781875 133.34875 24.75125 133.885 25.75 134.4375 C28.8125 136.8125 28.8125 136.8125 29.50390625 139.9609375 C29.65666016 141.37246094 29.65666016 141.37246094 29.8125 142.8125 C25.71916095 142.88658587 21.62608067 142.9410704 17.53222656 142.97729492 C16.13925378 142.99239358 14.74632862 143.01287444 13.35351562 143.03881836 C11.35307115 143.07515122 9.35228173 143.09061192 7.3515625 143.10546875 C5.54486084 143.12903442 5.54486084 143.12903442 3.70166016 143.15307617 C2.27152588 142.98449097 2.27152588 142.98449097 0.8125 142.8125 C-1.40194444 139.49083334 -1.38474779 138.22544985 -0.78857422 134.39453125 C0.57003848 128.55834609 2.72544669 122.94450346 4.75 117.3125 C8.75396681 106.20572628 8.75396681 106.20572628 11.8125 94.8125 C11.06154053 94.75715088 10.31058105 94.70180176 9.53686523 94.64477539 C6.10772322 94.39063754 2.67886475 94.13285063 -0.75 93.875 C-1.93142578 93.78798828 -3.11285156 93.70097656 -4.33007812 93.61132812 C-9.98567509 93.1835939 -15.58817474 92.72516535 -21.1875 91.8125 C-21.44817261 92.72999023 -21.44817261 92.72999023 -21.71411133 93.66601562 C-23.4673425 99.69026311 -25.51540788 105.5013516 -27.875 111.3125 C-28.17599609 112.07046875 -28.47699219 112.8284375 -28.78710938 113.609375 C-35.27938394 129.74248215 -42.78529177 145.43864071 -50.28833008 161.11865234 C-51.41279232 163.47085584 -52.53280816 165.82513612 -53.65234375 168.1796875 C-53.99394028 168.89003143 -54.3355368 169.60037537 -54.68748474 170.33224487 C-56.17689655 173.46943283 -57.42196016 176.42820623 -58.1875 179.8125 C-55.2175 182.2875 -55.2175 182.2875 -52.1875 184.8125 C-52.5175 186.1325 -52.8475 187.4525 -53.1875 188.8125 C-57.62478151 188.92836755 -62.06167591 188.99964058 -66.5 189.0625 C-67.76263672 189.09601563 -69.02527344 189.12953125 -70.32617188 189.1640625 C-71.53466797 189.17695313 -72.74316406 189.18984375 -73.98828125 189.203125 C-75.10372314 189.22407227 -76.21916504 189.24501953 -77.3684082 189.26660156 C-80.1875 188.8125 -80.1875 188.8125 -82.13745117 187.16308594 C-84.0472768 182.88784735 -82.38702685 179.19531143 -80.83984375 175.02392578 C-80.27422256 173.59949351 -79.7022471 172.17757319 -79.125 170.7578125 C-78.81785568 169.98806595 -78.51071136 169.2183194 -78.19425964 168.42524719 C-77.53737623 166.78021505 -76.87793507 165.13620233 -76.21615601 163.49313354 C-74.48082431 159.18180704 -72.76728723 154.86181663 -71.05078125 150.54296875 C-70.71202469 149.69205154 -70.37326813 148.84113434 -70.02424622 147.96443176 C-66.31478051 138.63903376 -62.72522298 129.27596886 -59.30273438 119.84130859 C-58.04251769 116.41874988 -56.7300254 113.01779202 -55.421875 109.61328125 C-50.3296164 96.12396844 -46.94407377 84.42804685 -48.10229492 69.93603516 C-48.63279264 56.71463367 -43.1512566 43.37595546 -39.1184082 30.98291016 C-37.70998236 26.98088869 -37.70998236 26.98088869 -37.1875 22.8125 C-48.92607794 26.8602855 -54.13431868 32.54938448 -59.6015625 43.6953125 C-60.43442467 45.52965312 -61.25278807 47.37066391 -62.0546875 49.21875 C-63.62901938 52.82342712 -65.40232456 56.30826673 -67.1875 59.8125 C-73.33972436 59.38076496 -77.00667949 58.15844658 -82.1875 54.8125 C-81.62963373 48.92740372 -79.94301066 44.04442055 -77.625 38.625 C-77.26784912 37.78855957 -76.91069824 36.95211914 -76.54272461 36.09033203 C-69.05437229 19.05716389 -58.31248594 7.18606083 -41.1875 -0.1875 C-27.37302124 -5.31055429 -12.81820438 -8.79680692 0 0 Z " fill="#243E66" transform="translate(760.1875,270.1875)"/>
<path d="M0 0 C1.39137177 -0.01270432 1.39137177 -0.01270432 2.81085205 -0.02566528 C5.86622966 -0.04899721 8.92110268 -0.05005847 11.9765625 -0.04882812 C14.10595907 -0.05593103 16.23535373 -0.06363022 18.36474609 -0.07189941 C22.82329636 -0.08533479 27.28166955 -0.08691675 31.74023438 -0.08105469 C37.45019732 -0.07515386 43.15931141 -0.10577096 48.86911011 -0.14617157 C53.26493904 -0.17203255 57.660563 -0.17492752 62.05645752 -0.17127991 C64.16158179 -0.17297206 66.26671544 -0.18262374 68.37176514 -0.20042419 C71.31612897 -0.22258617 74.25876654 -0.21292635 77.203125 -0.1953125 C78.06979797 -0.20857574 78.93647095 -0.22183899 79.82940674 -0.23550415 C84.00767427 -0.17749437 86.74639699 0.10320963 90.06396484 2.77087402 C93.31566513 6.16538759 94.84987971 8.11336078 94.86225891 12.77120972 C94.86934372 13.66000824 94.87642853 14.54880676 94.88372803 15.46453857 C94.88125061 16.43707581 94.87877319 17.40961304 94.8762207 18.41162109 C94.88133163 19.43790619 94.88644257 20.46419128 94.89170837 21.52157593 C94.90563678 24.92264599 94.90464501 28.32351413 94.90234375 31.72460938 C94.90622916 34.0848905 94.9105635 36.44517093 94.91532898 38.80545044 C94.92279838 43.75687932 94.92249487 48.70823691 94.91723633 53.65966797 C94.91144364 60.00744208 94.92836462 66.35492423 94.951581 72.70265007 C94.96630814 77.5788036 94.96719137 82.45488668 94.96407127 87.3310585 C94.96458509 89.67144473 94.96983412 92.01183484 94.97988319 94.35219955 C94.99220894 97.62480413 94.9854785 100.89683826 94.97387695 104.16943359 C94.98152069 105.13792236 94.98916443 106.10641113 94.99703979 107.10424805 C94.9585377 112.01388662 94.86554587 115.47381875 91.6015625 119.41992188 C87.52309862 122.58705 83.2079114 124.58667933 78.41015625 126.40039062 C77.74242691 126.6587117 77.07469757 126.91703278 76.38673401 127.18318176 C74.98548014 127.72350725 73.58286097 128.26030424 72.17895508 128.79370117 C70.0383807 129.60768114 67.90278387 130.43377182 65.76757812 131.26171875 C64.39871345 131.78782791 63.02958161 132.3132426 61.66015625 132.83789062 C61.02669785 133.08266647 60.39323944 133.32744232 59.74058533 133.57963562 C56.37598922 134.85214005 53.13166886 135.76086249 49.6015625 136.41992188 C49.59569626 135.33077484 49.58983002 134.24162781 49.58378601 133.11947632 C49.52654355 122.84933164 49.45377381 112.57939839 49.36584759 102.30946922 C49.32114282 97.02973332 49.28188679 91.75007461 49.25512695 86.47021484 C49.22909524 81.3737169 49.18869344 76.27751595 49.13837624 71.18120193 C49.12170669 69.23802004 49.11019296 67.29478678 49.10394859 65.35154343 C49.09430855 62.62711286 49.06625031 59.90344228 49.03393555 57.17919922 C49.03537064 56.37790588 49.03680573 55.57661255 49.0382843 54.7510376 C48.95759762 49.93297323 48.30792363 46.56676593 45.6015625 42.41992188 C42.7303792 39.83787644 40.90386868 39.0437617 37.05841064 39.02119446 C35.69969093 39.00238724 35.69969093 39.00238724 34.31352234 38.98320007 C32.83430046 38.98535271 32.83430046 38.98535271 31.32519531 38.98754883 C30.28097916 38.97735718 29.236763 38.96716553 28.16090393 38.95666504 C24.70877769 38.92646644 21.25692863 38.9172584 17.8046875 38.90820312 C15.41142856 38.89136157 13.01817849 38.87321205 10.62493896 38.85380554 C4.32524386 38.80624279 -1.97441527 38.77647386 -8.27423096 38.75036621 C-14.70242417 38.72059246 -21.13049336 38.67405118 -27.55859375 38.62890625 C-40.17180763 38.54280165 -52.78505159 38.47491878 -65.3984375 38.41992188 C-65.3984375 36.10992187 -65.3984375 33.79992187 -65.3984375 31.41992188 C-64.73650391 31.06913574 -64.07457031 30.71834961 -63.39257812 30.35693359 C-49.8142897 23.14492802 -36.37430495 15.78721181 -23.14257812 7.95263672 C-22.21123047 7.40172363 -21.27988281 6.85081055 -20.3203125 6.28320312 C-19.10746582 5.56064331 -19.10746582 5.56064331 -17.87011719 4.82348633 C-17.05446289 4.36031006 -16.23880859 3.89713379 -15.3984375 3.41992188 C-14.55130188 2.90463425 -13.70416626 2.38934662 -12.83135986 1.85844421 C-8.41501122 0.00782963 -4.73775587 -0.01602044 0 0 Z " fill="#135FA6" transform="translate(859.3984375,374.580078125)"/>
<path d="M0 0 C3.67175627 0.04186233 7.34347036 0.03492931 11.01542044 0.03458238 C17.16667946 0.04104699 23.31692554 0.08175361 29.46784353 0.14559007 C36.57043747 0.2190759 43.6720412 0.24690775 50.77499259 0.24873871 C58.36683622 0.25098802 65.95831417 0.28370789 73.55002499 0.32675219 C75.72867377 0.33722211 77.90728092 0.34229302 80.08595037 0.34626412 C84.14062013 0.35565415 88.19420747 0.39947675 92.24860525 0.44734788 C94.05176451 0.44698533 94.05176451 0.44698533 95.89135122 0.44661546 C103.93967514 0.58148635 103.93967514 0.58148635 107.94584036 2.76907945 C111.76731655 7.49096527 112.08271431 11.76162315 112.06183767 17.67684007 C112.0669486 18.42871095 112.07205954 19.18058183 112.07732534 19.95523667 C112.09118382 22.4316114 112.09026747 24.90770665 112.08796072 27.38411546 C112.09184962 29.11137582 112.09618469 30.83863523 112.10094595 32.56589341 C112.10840003 36.18298532 112.10812271 39.7999796 112.1028533 43.41707444 C112.09705872 48.04511603 112.11399322 52.67275741 112.13719797 57.30073285 C112.15195168 60.86701365 112.1528048 64.43319842 112.14968824 67.99950433 C112.1502006 69.70548951 112.15542222 71.4114802 112.16550016 73.11743569 C112.17787968 75.50598904 112.17106438 77.89376726 112.15949392 80.28230882 C112.16713766 80.98223954 112.1747814 81.68217027 112.18265676 82.40331101 C112.1336116 86.99943822 111.18518578 90.13177009 108.78717947 94.04427171 C106.87799978 95.47127366 106.87799978 95.47127366 104.61530447 96.47005296 C103.72778494 96.87304612 102.84026541 97.27603929 101.92585135 97.69124436 C100.37220877 98.3609929 100.37220877 98.3609929 98.78717947 99.04427171 C97.54745749 99.59898807 96.30857074 100.15557365 95.0703826 100.7137053 C91.6198267 102.2620628 88.15777769 103.78255762 84.69049978 105.293051 C82.52566967 106.2367893 80.36337363 107.18616686 78.20124197 108.13606858 C76.80815999 108.74512931 75.4149358 109.35386488 74.02155447 109.96224046 C73.06512045 110.38257806 73.06512045 110.38257806 72.08936453 110.81140733 C68.3729413 112.42529887 64.63616809 113.78543242 60.78717947 115.04427171 C60.77909262 114.16588136 60.77100576 113.28749101 60.76267385 112.38248277 C60.68468719 104.09872553 60.5973841 95.81512991 60.49965239 87.53158116 C60.44973686 83.2730677 60.40340645 79.01457847 60.36530447 74.75594163 C60.32839166 70.64502761 60.28201552 66.5343187 60.22911596 62.42358041 C60.21060385 60.85636776 60.19548415 59.2891112 60.18383551 57.72183251 C60.16691833 55.52416761 60.13787091 53.32696917 60.10602713 51.12947679 C60.08604162 49.25417031 60.08604162 49.25417031 60.06565237 47.34097886 C59.60228268 41.85536731 57.98265961 38.60407304 53.78717947 35.04427171 C50.85244002 34.06602523 48.92982906 33.90842902 45.87075186 33.88605332 C44.85692938 33.87626451 43.8431069 33.86647569 42.79856253 33.85639024 C41.68725973 33.85063478 40.57595694 33.84487931 39.4309783 33.83894944 C38.26011175 33.82904984 37.0892452 33.81915025 35.88289785 33.80895066 C32.67244692 33.7827601 29.46200125 33.76089917 26.25150657 33.74094868 C22.89623878 33.7190796 19.54101616 33.69169542 16.18578482 33.66489244 C9.8322849 33.61497801 3.47875991 33.57003455 -2.87478906 33.52687007 C-10.10812441 33.47748701 -17.34141444 33.42257285 -24.57470596 33.36719048 C-39.45403525 33.25338963 -54.33340722 33.14654646 -69.21282053 33.04427171 C-69.54282053 30.40427171 -69.87282053 27.76427171 -70.21282053 25.04427171 C-69.47346262 24.63700852 -68.73410471 24.22974534 -67.97234201 23.81014085 C-65.14738409 22.25229358 -62.32384551 20.6919085 -59.50115061 19.12996507 C-58.29465535 18.46297897 -57.08764817 17.79691779 -55.88005686 17.13191819 C-54.74149033 16.50477803 -53.60389428 15.8758716 -52.46743917 15.24491334 C-51.2616399 14.57881303 -50.05225191 13.9191432 -48.83841276 13.26780915 C-45.7521459 11.58401534 -43.04242567 9.90837282 -40.27988291 7.70509934 C-28.17777908 -1.41206951 -14.5075495 -0.19958734 0 0 Z " fill="#F37323" transform="translate(781.2128205299377,425.9557282924652)"/>
<path d="M0 0 C7.693125 -0.0825 15.38625 -0.165 23.3125 -0.25 C25.71829346 -0.28641602 28.12408691 -0.32283203 30.6027832 -0.36035156 C32.54377352 -0.37205142 34.48477378 -0.38224016 36.42578125 -0.390625 C37.89597717 -0.4213208 37.89597717 -0.4213208 39.39587402 -0.45263672 C48.6723369 -0.45724442 57.76859768 1.94580271 65 8 C72.85273641 16.64747118 73.56701387 25.45988743 73.30859375 36.671875 C72.85011911 45.56742445 68.532666 52.09779664 62 58 C59.45534026 59.80269632 56.92807875 60.94405523 54 62 C52.82824219 62.44666016 52.82824219 62.44666016 51.6328125 62.90234375 C41.09217473 66.21729795 29.90244861 65.19015899 19 65 C19 73.91 19 82.82 19 92 C12.73 92 6.46 92 0 92 C0 61.64 0 31.28 0 0 Z " fill="#243553" transform="translate(862,601)"/>
<path d="M0 0 C9.28526301 5.19216748 15.53962903 12.85143179 19.0078125 22.8984375 C21.7173399 34.53346692 20.66221856 46.49741138 14.55078125 56.83984375 C11.11618708 61.83220468 6.99962499 65.42255163 1.87109375 68.60546875 C0.70320312 69.33830078 0.70320312 69.33830078 -0.48828125 70.0859375 C-9.93323269 75.1947976 -21.33546827 75.09625524 -31.62890625 72.54296875 C-41.73026259 68.86196602 -51.00960395 59.61859736 -55.56640625 49.98046875 C-57.05192681 46.19795383 -57.83793422 42.67907712 -58.12890625 38.60546875 C-58.18046875 37.91839844 -58.23203125 37.23132813 -58.28515625 36.5234375 C-58.74778832 25.5166496 -54.40705193 15.47007507 -47.08984375 7.33984375 C-41.97468045 2.45965261 -36.82889662 -0.25392061 -30.12890625 -2.39453125 C-20.62092558 -5.56385814 -8.95902019 -3.99297155 0 0 Z " fill="#FBFBFB" transform="translate(936.12890625,221.39453125)"/>
<path d="M0 0 C3.74296924 2.70709214 6.92286173 5.74385109 10.0625 9.125 C8.76750785 13.00997644 6.84465411 14.2395437 3.6875 16.8125 C2.71039063 17.62074219 1.73328125 18.42898438 0.7265625 19.26171875 C-1.9375 21.125 -1.9375 21.125 -4.9375 21.125 C-4.9375 20.465 -4.9375 19.805 -4.9375 19.125 C-5.453125 18.8775 -5.96875 18.63 -6.5 18.375 C-8.9375 17.125 -8.9375 17.125 -12.1875 15.125 C-19.29645431 11.09508323 -25.95781746 10.45203488 -33.9375 12.125 C-41.64564464 14.49242143 -47.41806861 17.2864422 -51.625 24.375 C-55.31058487 31.44483262 -57.41985805 38.89854172 -55.1796875 46.796875 C-52.08441117 55.8146092 -48.28478418 62.23176445 -39.9375 67.125 C-33.3094822 70.11410607 -27.00038393 71.01258425 -19.9375 69.125 C-11.24453326 65.70315715 -11.24453326 65.70315715 -4.9375 59.125 C-0.83639238 60.52898279 2.04339159 62.49587038 5.375 65.25 C6.25800781 65.97445312 7.14101563 66.69890625 8.05078125 67.4453125 C8.71464844 67.99960937 9.37851562 68.55390625 10.0625 69.125 C5.80473339 78.70497486 -4.77899536 83.25151058 -13.9375 87.125 C-26.11865592 90.63447876 -40.93625161 89.19794348 -51.9375 83.125 C-62.37927379 76.60742224 -70.99638395 66.8877156 -74.9375 55.125 C-78.02178234 40.8196115 -76.66400547 25.64115045 -68.9375 13.125 C-62.01848761 3.51700779 -52.45371752 -3.0502674 -40.9375 -5.875 C-39.83535156 -6.14763672 -39.83535156 -6.14763672 -38.7109375 -6.42578125 C-25.34569631 -8.59057384 -11.59863718 -7.32139889 0 0 Z " fill="#243451" transform="translate(477.9375,605.875)"/>
<path d="M0 0 C6.75100391 5.48519068 10.40383142 11.92001316 12.5 20.3046875 C12.5 25.5846875 12.5 30.8646875 12.5 36.3046875 C-4 36.3046875 -20.5 36.3046875 -37.5 36.3046875 C-33.96148259 44.31420341 -33.96148259 44.31420341 -27.5 48.3046875 C-20.15903319 49.96941068 -13.34494209 49.54026593 -6.5 46.3046875 C-4.85 44.9846875 -3.2 43.6646875 -1.5 42.3046875 C1.8 45.6046875 5.1 48.9046875 8.5 52.3046875 C5.4312417 58.44220409 -0.17364247 61.56768367 -6.4375 64.1796875 C-16.8541687 67.21331382 -29.26438731 66.65354188 -38.953125 61.8359375 C-48.02736535 56.38025925 -52.67508987 49.48659183 -56.140625 39.44921875 C-58.00520097 28.32256433 -57.35933024 17.30212305 -50.83984375 7.9140625 C-38.6765098 -7.17146873 -16.23105111 -11.00668154 0 0 Z " fill="#253652" transform="translate(755.5,628.6953125)"/>
<path d="M0 0 C6.59688622 5.53437888 11.3494423 13.28624082 12.25 21.9375 C12.43722915 26.27919229 12.52397351 30.59852419 12.25 34.9375 C10.63756815 36.54993185 8.86946654 36.10288039 6.63842773 36.14282227 C5.65748642 36.16276749 4.6765451 36.18271271 3.6658783 36.20326233 C2.5992244 36.21997482 1.5325705 36.23668732 0.43359375 36.25390625 C-0.6525975 36.27468735 -1.73878876 36.29546844 -2.8578949 36.31687927 C-6.34269627 36.38249442 -9.82757568 36.44131511 -13.3125 36.5 C-15.66862801 36.54317385 -18.02474799 36.58678776 -20.38085938 36.63085938 C-26.17048937 36.73818792 -31.96019775 36.83993165 -37.75 36.9375 C-34.95570266 42.86627 -31.87025471 46.39373517 -25.75 48.9375 C-18.05603562 49.88275848 -12.28628647 49.00782384 -5.75 44.9375 C-4.42232377 44.25963714 -3.09031297 43.59002079 -1.75 42.9375 C-1.27949219 43.41960938 -0.80898438 43.90171875 -0.32421875 44.3984375 C0.29839844 45.03007813 0.92101562 45.66171875 1.5625 46.3125 C2.17738281 46.93898438 2.79226563 47.56546875 3.42578125 48.2109375 C5.33812528 50.11836607 5.33812528 50.11836607 8.25 51.9375 C8.25 52.5975 8.25 53.2575 8.25 53.9375 C2.97554014 59.11220649 -2.60950512 62.22761138 -9.75 63.9375 C-10.678125 64.164375 -11.60625 64.39125 -12.5625 64.625 C-25.71741661 65.91469771 -36.28670612 64.42886542 -46.75 55.9375 C-53.31910665 50.11488275 -57.15765894 42.04504464 -58.1640625 33.3671875 C-58.32983915 26.38949749 -57.70283214 20.28863464 -54.75 13.9375 C-54.4715625 13.32519531 -54.193125 12.71289062 -53.90625 12.08203125 C-49.54243023 3.56129697 -42.56451883 -1.63305698 -33.75 -5.0625 C-22.27896573 -8.0288231 -9.74119409 -6.87232328 0 0 Z " fill="#253653" transform="translate(678.75,629.0625)"/>
<path d="M0 0 C5.36600288 5.83947373 8.25889793 12.36010173 8.23852539 20.26464844 C8.23841209 21.73572052 8.23841209 21.73572052 8.23829651 23.23651123 C8.23313522 24.28768127 8.22797394 25.33885132 8.22265625 26.421875 C8.2212413 27.50382141 8.21982635 28.58576782 8.21836853 29.70050049 C8.21277318 33.1545285 8.2002215 36.60849159 8.1875 40.0625 C8.1824844 42.40494698 8.1779216 44.74739498 8.17382812 47.08984375 C8.16280527 52.83075417 8.14554379 58.57161608 8.125 64.3125 C2.185 64.3125 -3.755 64.3125 -9.875 64.3125 C-10.205 62.3325 -10.535 60.3525 -10.875 58.3125 C-11.535 58.910625 -12.195 59.50875 -12.875 60.125 C-20.68110043 65.81694823 -28.43971449 66.24542711 -37.875 65.3125 C-44.24575738 63.87779861 -48.82215651 61.34850274 -52.7578125 56.08984375 C-56.26623334 50.50826514 -56.50783302 44.73269301 -55.875 38.3125 C-53.95505553 31.53622539 -49.92570617 27.73607262 -44.02734375 24.20703125 C-39.46547438 22.31108191 -34.70342956 22.18967304 -29.8203125 22.21484375 C-28.71171875 22.21806641 -27.603125 22.22128906 -26.4609375 22.22460938 C-25.31882812 22.23298828 -24.17671875 22.24136719 -23 22.25 C-21.25203125 22.25676758 -21.25203125 22.25676758 -19.46875 22.26367188 C-16.60411355 22.27541219 -13.73958367 22.2918343 -10.875 22.3125 C-11.33190571 17.33363804 -11.33190571 17.33363804 -13.5625 13 C-18.3511789 9.50555864 -23.04430413 8.73898893 -28.875 9.3125 C-32.62215366 10.45551666 -36.24427858 11.8452173 -39.875 13.3125 C-41.27878906 13.87324219 -41.27878906 13.87324219 -42.7109375 14.4453125 C-43.78214844 14.87457031 -43.78214844 14.87457031 -44.875 15.3125 C-46.07491599 13.7175992 -47.25961318 12.11123853 -48.4375 10.5 C-49.42943359 9.16001953 -49.42943359 9.16001953 -50.44140625 7.79296875 C-51.15103516 6.56513672 -51.15103516 6.56513672 -51.875 5.3125 C-50.48851994 1.15305983 -48.35393865 0.48461666 -44.578125 -1.48046875 C-30.15523278 -7.92074866 -13.69851586 -8.04043322 0 0 Z " fill="#253552" transform="translate(550.875,628.6875)"/>
<path d="M0 0 C7.79319633 8.4808313 9.43837028 17.96409936 9.3203125 29.05859375 C9.3174826 30.06970718 9.31465271 31.08082062 9.31173706 32.12257385 C9.30059889 35.33183952 9.27550597 38.54081958 9.25 41.75 C9.23996198 43.93424074 9.23083757 46.11848589 9.22265625 48.30273438 C9.20068038 53.63943189 9.16619445 58.97591763 9.125 64.3125 C3.185 64.3125 -2.755 64.3125 -8.875 64.3125 C-9.37 60.8475 -9.37 60.8475 -9.875 57.3125 C-10.29910156 57.72242188 -10.72320313 58.13234375 -11.16015625 58.5546875 C-18.06811659 64.90090161 -24.42605842 65.75189781 -33.65625 65.55078125 C-40.60728599 65.03620213 -45.06375294 63.6112981 -49.8125 58.375 C-55.31314327 51.62598378 -55.69608325 45.92334738 -54.875 37.3125 C-53.40530504 32.08485084 -49.57709016 28.85455875 -45.4609375 25.57421875 C-37.75016785 21.81201543 -29.14167171 22.04870645 -20.75 22.1875 C-19.1721875 22.20103516 -19.1721875 22.20103516 -17.5625 22.21484375 C-14.99975122 22.23814147 -12.43750488 22.27084888 -9.875 22.3125 C-11.30442284 16.88835083 -12.16920104 13.64577427 -16.875 10.3125 C-23.64117556 8.53070162 -30.6595812 8.89014278 -36.78515625 12.41015625 C-37.39230469 12.79042969 -37.99945312 13.17070313 -38.625 13.5625 C-39.6975 14.14 -40.77 14.7175 -41.875 15.3125 C-45.34563327 14.20081278 -47.02081738 12.20309431 -49.125 9.3125 C-49.64578125 8.61125 -50.1665625 7.91 -50.703125 7.1875 C-51.875 5.3125 -51.875 5.3125 -51.875 3.3125 C-34.70340952 -5.70740848 -17.90807665 -10.51126238 0 0 Z " fill="#263654" transform="translate(996.875,628.6875)"/>
<path d="M0 0 C5.94 0 11.88 0 18 0 C18.33 11.55 18.66 23.1 19 35 C21.31 33.02 23.62 31.04 26 29 C33.31858247 25.21452631 41.67933356 24.47646115 49.66015625 26.76171875 C56.12868868 29.49383679 60.67872661 32.9279616 64.203125 39.0234375 C66.66172727 45.1217353 66.12965425 51.85183017 66.09765625 58.3046875 C66.0962413 59.38380402 66.09482635 60.46292053 66.09336853 61.57473755 C66.08778844 65.00818702 66.07523955 68.44157036 66.0625 71.875 C66.05748243 74.20833239 66.05291997 76.5416658 66.04882812 78.875 C66.03782552 84.58335867 66.02057456 90.29166813 66 96 C60.06 96 54.12 96 48 96 C47.9906543 94.70376709 47.98130859 93.40753418 47.97167969 92.07202148 C47.93167712 87.24290144 47.8658894 82.41441158 47.79248047 77.58569336 C47.76433038 75.49951296 47.7430863 73.41322708 47.72900391 71.3269043 C47.70749198 68.32025385 47.66079876 65.31486359 47.609375 62.30859375 C47.60814636 61.38227646 47.60691772 60.45595917 47.60565186 59.50157166 C47.47148014 53.51116091 46.52789483 49.8923294 43 45 C38.31058614 41.8737241 33.48445014 42.31081645 28 43 C23.86169531 44.72429362 22.20488313 47.5458429 20.37963867 51.59179688 C18.71921653 56.247372 18.52588995 60.62463337 18.48828125 65.53125 C18.47033005 66.40777222 18.45237885 67.28429443 18.43388367 68.18737793 C18.38015491 70.95820453 18.34600627 73.72886265 18.3125 76.5 C18.27929379 78.39064826 18.24480112 80.28127439 18.20898438 82.171875 C18.12205282 86.78126921 18.06166616 91.38992327 18 96 C12.06 96 6.12 96 0 96 C0 64.32 0 32.64 0 0 Z " fill="#22334F" transform="translate(1073,597)"/>
<path d="M0 0 C0.763125 0.226875 1.52625 0.45375 2.3125 0.6875 C2.3125 1.6775 2.3125 2.6675 2.3125 3.6875 C3.45138672 3.61789062 3.45138672 3.61789062 4.61328125 3.546875 C5.60714844 3.51078125 6.60101562 3.4746875 7.625 3.4375 C8.61113281 3.39109375 9.59726562 3.3446875 10.61328125 3.296875 C13.3125 3.6875 13.3125 3.6875 15.15234375 5.4453125 C17.01036595 9.03623756 16.57120464 11.67757807 16.3125 15.6875 C15.9825 16.3475 15.6525 17.0075 15.3125 17.6875 C15.91578125 17.88085938 16.5190625 18.07421875 17.140625 18.2734375 C17.93984375 18.53382813 18.7390625 18.79421875 19.5625 19.0625 C20.35140625 19.31773437 21.1403125 19.57296875 21.953125 19.8359375 C24.18092719 20.6400118 26.20659139 21.61123305 28.3125 22.6875 C27.87033187 30.91182725 25.34594694 37.90001939 22.4375 45.5625 C21.76654297 47.39554687 21.76654297 47.39554687 21.08203125 49.265625 C17.09458425 59.92234176 17.09458425 59.92234176 14.3125 61.6875 C8.17116447 62.46278571 3.17902541 60.55796503 -2.48828125 58.4765625 C-3.40586716 58.14836517 -4.32345306 57.82016785 -5.2688446 57.48202515 C-7.19781012 56.7895033 -9.12485637 56.0916146 -11.05004883 55.38867188 C-14.00346316 54.3112366 -16.96294185 53.25201849 -19.92382812 52.1953125 C-21.79986101 51.51928787 -23.6755256 50.84224015 -25.55078125 50.1640625 C-26.43719803 49.84627838 -27.32361481 49.52849426 -28.2368927 49.20108032 C-29.05501938 48.9009201 -29.87314606 48.60075989 -30.71606445 48.29150391 C-31.43663528 48.02947174 -32.15720612 47.76743958 -32.89961243 47.49746704 C-34.6875 46.6875 -34.6875 46.6875 -36.6875 44.6875 C-37.57454227 37.1783798 -35.01617576 31.07395391 -32.375 24.125 C-31.97087891 23.02736328 -31.56675781 21.92972656 -31.15039062 20.79882812 C-30.02075994 17.75158046 -28.86246269 14.71751332 -27.6875 11.6875 C-27.40036133 10.93057861 -27.11322266 10.17365723 -26.81738281 9.39379883 C-25.00404508 4.83069897 -25.00404508 4.83069897 -22.0625 3.5 C-18.00995935 3.72514115 -15.23615602 4.97346339 -11.640625 6.77734375 C-9.744492 7.8282964 -9.744492 7.8282964 -7.6875 7.6875 C-7.419375 6.924375 -7.15125 6.16125 -6.875 5.375 C-4.28009259 -0.49768519 -4.28009259 -0.49768519 0 0 Z " fill="#243653" transform="translate(677.6875,331.3125)"/>
<path d="M0 0 C5.94 0 11.88 0 18 0 C18 6.27 18 12.54 18 19 C23.94 19 29.88 19 36 19 C36 23.95 36 28.9 36 34 C30.06 34 24.12 34 18 34 C18.07404901 38.76977754 18.15691368 43.53769546 18.26245117 48.30664062 C18.29566835 49.92828686 18.32371035 51.55004781 18.34643555 53.171875 C18.38004155 55.50570477 18.4323576 57.83848635 18.48828125 60.171875 C18.49467117 60.89493835 18.5010611 61.61800171 18.50764465 62.36297607 C18.62695139 66.46402002 18.95941454 69.10947542 22 72 C24.19453855 72.30482031 24.19453855 72.30482031 26.5 71.8125 C27.2734375 71.69519531 28.046875 71.57789063 28.84375 71.45703125 C31.16708465 71.00688602 31.16708465 71.00688602 34 70 C34.67756882 71.55780332 35.34159457 73.12150096 36 74.6875 C36.37125 75.55761719 36.7425 76.42773438 37.125 77.32421875 C38.01870488 80.0572002 38.16449676 82.14700934 38 85 C30.52821186 89.13254455 23.88017723 90.26523937 15.4765625 88.45703125 C9.62286445 86.69703234 5.45972241 84.45024833 2.25 79.0625 C-0.01192888 73.52077423 -0.13671764 68.3477928 -0.09765625 62.41796875 C-0.0962413 61.60378983 -0.09482635 60.7896109 -0.09336853 59.95075989 C-0.08779317 57.36296844 -0.07524524 54.77526508 -0.0625 52.1875 C-0.05748181 50.42773563 -0.05291946 48.66796989 -0.04882812 46.90820312 C-0.03783181 42.60543506 -0.02058421 38.30273244 0 34 C-3.63 34 -7.26 34 -11 34 C-11 29.05 -11 24.1 -11 19 C-7.37 19 -3.74 19 0 19 C0 12.73 0 6.46 0 0 Z " fill="#253552" transform="translate(1025,605)"/>
<path d="M0 0 C0 5.61 0 11.22 0 17 C-1.340625 17.268125 -2.68125 17.53625 -4.0625 17.8125 C-11.4913392 19.24712601 -11.4913392 19.24712601 -17.28515625 23.6796875 C-18.28256977 25.40281767 -19.14909466 27.20000794 -20 29 C-20.33 29.66 -20.66 30.32 -21 31 C-21.15720097 33.9148537 -21.25855654 36.80939636 -21.31640625 39.7265625 C-21.33718735 40.58937836 -21.35796844 41.45219421 -21.37937927 42.34115601 C-21.44486034 45.10235493 -21.50375298 47.86365038 -21.5625 50.625 C-21.6056866 52.49480172 -21.64930093 54.36459362 -21.69335938 56.234375 C-21.80134674 60.8228191 -21.90043062 65.41133453 -22 70 C-28.27 70 -34.54 70 -41 70 C-41 47.23 -41 24.46 -41 1 C-34.73 1 -28.46 1 -22 1 C-21.67 3.64 -21.34 6.28 -21 9 C-20.54109375 8.59007812 -20.0821875 8.18015625 -19.609375 7.7578125 C-18.99578125 7.21898437 -18.3821875 6.68015625 -17.75 6.125 C-17.14671875 5.59132813 -16.5434375 5.05765625 -15.921875 4.5078125 C-11.0146286 0.65781837 -6.15554412 0 0 0 Z " fill="#263653" transform="translate(821,623)"/>
<path d="M0 0 C0 5.61 0 11.22 0 17 C-1.52625 17.268125 -3.0525 17.53625 -4.625 17.8125 C-10.06061515 18.91804884 -14.19659063 20.24668533 -18.25 24.1875 C-21.92632187 30.09587444 -22.30585074 36.65233011 -22.4140625 43.4375 C-22.43342865 44.20304199 -22.4527948 44.96858398 -22.4727478 45.75732422 C-22.53190946 48.17144075 -22.57867144 50.58560665 -22.625 53 C-22.66323837 54.64975889 -22.70229339 56.29949907 -22.7421875 57.94921875 C-22.83907568 61.96604124 -22.91914324 65.98269583 -23 70 C-28.94 70 -34.88 70 -41 70 C-41 47.23 -41 24.46 -41 1 C-35.06 1 -29.12 1 -23 1 C-22.67 3.97 -22.34 6.94 -22 10 C-21.50371094 9.52949219 -21.00742187 9.05898438 -20.49609375 8.57421875 C-13.61928746 2.27156706 -9.68894791 0 0 0 Z " fill="#223350" transform="translate(616,623)"/>
<path d="M0 0 C4.1115992 3.63036479 7.01364823 7.52026793 8 13 C8.08164989 19.25204903 6.69743782 24.8993177 3 30 C-1.84374394 34.63212406 -7.10294374 36.71029437 -13.75 37.375 C-19.76577877 37.16755935 -25.66633631 35.38552289 -29.93359375 31.0234375 C-35.21612804 24.05606613 -35.71622626 18.73796035 -35 10 C-33.54867771 4.49196963 -30.63099516 0.98900439 -25.85546875 -2.03515625 C-16.48081225 -6.90997763 -8.5283961 -5.59193023 0 0 Z " fill="#1A9D9F" transform="translate(937,733)"/>
<path d="M0 0 C3 1 3 1 4.82421875 4.08984375 C5.45565368 5.3673363 6.07636944 6.6501707 6.6875 7.9375 C7.00783203 8.58396484 7.32816406 9.23042969 7.65820312 9.89648438 C10 14.70490738 10 14.70490738 10 17 C11.68029297 17.09087891 11.68029297 17.09087891 13.39453125 17.18359375 C14.86719984 17.26801424 16.33985544 17.35266149 17.8125 17.4375 C18.55048828 17.47681641 19.28847656 17.51613281 20.04882812 17.55664062 C23.23071342 17.74381035 25.96162378 17.98720793 29 19 C27.86819855 22.39540434 26.89642801 23.15357852 24.1875 25.375 C23.47207031 25.99503906 22.75664063 26.61507812 22.01953125 27.25390625 C21.35308594 27.83011719 20.68664062 28.40632813 20 29 C17.26303383 31.12602586 17.26303383 31.12602586 16 34 C16.23844924 36.58320014 16.77445467 38.97109248 17.4140625 41.484375 C18.17720598 44.76080436 18.1455396 47.65258919 18 51 C13.22230897 49.65244612 9.40624224 47.55831728 5.24609375 44.92578125 C2.31911694 43.71935777 0.99421096 44.02767656 -2 45 C-3.90520899 45.96327794 -5.78038038 46.98774229 -7.625 48.0625 C-12.67058824 51 -12.67058824 51 -16 51 C-15.63261719 49.85144531 -15.26523437 48.70289063 -14.88671875 47.51953125 C-12.37643997 39.10667128 -12.37643997 39.10667128 -14.13378906 30.87158203 C-17.52996039 26.60565951 -21.65413882 23.25795686 -26 20 C-25.67 19.34 -25.34 18.68 -25 18 C-22.234375 17.65625 -22.234375 17.65625 -18.75 17.5 C-12.57692545 17.30791092 -12.57692545 17.30791092 -7 15 C-5.40067883 12.59240363 -4.29955112 10.03606713 -3.1875 7.375 C-2.87619141 6.66859375 -2.56488281 5.9621875 -2.24414062 5.234375 C-1.48076789 3.496234 -0.73829896 1.74893875 0 0 Z " fill="#FAA620" transform="translate(916,229)"/>
<path d="M0 0 C4.05196377 3.95987369 5.88307668 7.35343835 6.1875 13 C5.96534761 18.72766824 4.18633271 24.01013972 0.2890625 28.29296875 C-5.38840929 33.20671972 -9.83350503 34.21127334 -17.20703125 34.05859375 C-22.76597759 33.38067346 -26.03758291 30.98105708 -29.84765625 27.03125 C-33.63228491 22.05535939 -34.04675608 17.01674956 -33.8046875 10.88671875 C-32.73358336 4.70901249 -29.56026002 0.49062977 -24.6875 -3.3125 C-15.6304055 -7.02823108 -7.8994231 -5.62074336 0 0 Z " fill="#1A5697" transform="translate(778.25,228.3125)"/>
<path d="M0 0 C4.9809375 -0.061875 4.9809375 -0.061875 10.0625 -0.125 C11.61142944 -0.15231201 11.61142944 -0.15231201 13.19165039 -0.18017578 C25.2701751 -0.25241158 25.2701751 -0.25241158 29.7421875 3.4375 C33.34283535 8.40391083 34.51104618 10.76523657 34 17 C32.9526308 19.75137919 31.75790682 21.55846274 30 24 C27.75 24.9375 27.75 24.9375 26 25 C28.08363359 28.78140911 30.21082757 32.38092512 32.75 35.875 C35 39 35 39 35 40 C31.46014804 40.71812571 28.51205977 40.93722112 25 40 C22.65327523 37.33894329 20.91006455 34.51873793 19.02734375 31.515625 C17.22362035 28.84535753 17.22362035 28.84535753 14.50390625 28.046875 C11.75418819 27.73067515 11.75418819 27.73067515 8 28 C8 31.96 8 35.92 8 40 C5.36 40 2.72 40 0 40 C0 26.8 0 13.6 0 0 Z " fill="#189A9B" transform="translate(967,729)"/>
<path d="M0 0 C5.6925 -0.12375 5.6925 -0.12375 11.5 -0.25 C12.68013672 -0.28641602 13.86027344 -0.32283203 15.07617188 -0.36035156 C21.8879933 -0.43164341 26.21407307 0.34324011 32 4 C35.03529072 7.13014356 35.26727865 10.10024356 35.5 14.3125 C35.30724473 20.02576622 34.05014401 23.9169092 30 28 C23.63958211 31.35624442 16.955796 31.37646055 9.9375 31.1875 C6.658125 31.125625 3.37875 31.06375 0 31 C0 20.77 0 10.54 0 0 Z " fill="#FBFBFB" transform="translate(881,618)"/>
<path d="M0 0 C7 0 7 0 9.80859375 2.45703125 C10.70715277 3.55772011 11.58265902 4.67752371 12.4375 5.8125 C12.90196533 6.39475342 13.36643066 6.97700684 13.8449707 7.5769043 C15.25779539 9.36509021 16.63392215 11.17591927 18 13 C18.42087891 13.55945313 18.84175781 14.11890625 19.27539062 14.6953125 C21.56898489 17.76331905 23.78876936 20.87090003 26 24 C26.33 16.08 26.66 8.16 27 0 C29.64 0 32.28 0 35 0 C35 13.2 35 26.4 35 40 C27 40 27 40 25.19311523 38.87353516 C24.81872314 38.35065918 24.44433105 37.8277832 24.05859375 37.2890625 C23.62329346 36.70785645 23.18799316 36.12665039 22.73950195 35.52783203 C22.30984131 34.89989746 21.88018066 34.27196289 21.4375 33.625 C20.97496826 32.99319824 20.51243652 32.36139648 20.03588867 31.71044922 C18.66410773 29.82428026 17.32966086 27.91600788 16 26 C15.25492188 24.9584375 14.50984375 23.916875 13.7421875 22.84375 C12.13579759 20.58049621 10.56348108 18.29310558 9 16 C8.67 23.92 8.34 31.84 8 40 C5.36 40 2.72 40 0 40 C0 26.8 0 13.6 0 0 Z " fill="#16999B" transform="translate(536,729)"/>
<path d="M0 0 C2.97 0 5.94 0 9 0 C15.83923337 12.99072261 21.48210324 26.40281243 27 40 C23.7 40 20.4 40 17 40 C15.74335022 37.09399739 15 35.20395416 15 32 C8.4 32 1.8 32 -5 32 C-5.495 34.475 -5.495 34.475 -6 37 C-6.33 37.99 -6.66 38.98 -7 40 C-10.3 40 -13.6 40 -17 40 C-13.29729944 31.05379434 -9.50879073 22.14595559 -5.6875 13.25 C-5.13210408 11.95575379 -4.57676524 10.66148308 -4.02148438 9.3671875 C-2.68154738 6.24455173 -1.34104305 3.12216088 0 0 Z " fill="#1A9B9D" transform="translate(811,729)"/>
<path d="M0 0 C2.97 0 5.94 0 9 0 C10.77834896 3.96516484 12.55649793 7.93041929 14.33447266 11.89575195 C14.93760964 13.24082786 15.54079846 14.58588052 16.14404297 15.9309082 C16.43553223 16.5808374 16.72702148 17.2307666 17.02734375 17.90039062 C17.46040833 18.86593369 17.46040833 18.86593369 17.90222168 19.85098267 C18.75291475 21.74898558 19.60206111 23.64767552 20.45117188 25.54638672 C21.39918084 27.66027935 22.35236277 29.77187343 23.31445312 31.87939453 C23.67990234 32.6836084 24.04535156 33.48782227 24.421875 34.31640625 C24.7322168 34.9926001 25.04255859 35.66879395 25.36230469 36.36547852 C26 38 26 38 26 40 C23.03 40 20.06 40 17 40 C14 34.25 14 34.25 14 32 C7.73 32.33 1.46 32.66 -5 33 C-5.99 35.31 -6.98 37.62 -8 40 C-10.97 40 -13.94 40 -17 40 C-14.38574295 31.3020072 -10.58594866 23.17552234 -6.8125 14.9375 C-6.15127953 13.48521409 -5.49046882 12.03274154 -4.83007812 10.58007812 C-3.22476912 7.05121549 -1.61393292 3.52492629 0 0 Z " fill="#1A9B9C" transform="translate(608,729)"/>
<path d="M0 0 C0.66 0.99 1.32 1.98 2 3 C0.02 4.65 -1.96 6.3 -4 8 C-4.825 7.505 -5.65 7.01 -6.5 6.5 C-10.58008598 4.75139172 -13.63184747 4.20816359 -18 5 C-21.10352458 6.60923497 -23.21701424 8.00347267 -25.375 10.75 C-26.83243811 15.99677719 -26.72165056 19.65623688 -24.1875 24.375 C-21.84836968 27.18195638 -20.31601985 28.87415694 -16.58984375 29.23046875 C-15.27693359 29.20919922 -15.27693359 29.20919922 -13.9375 29.1875 C-12.62072266 29.17783203 -12.62072266 29.17783203 -11.27734375 29.16796875 C-8.96874009 29.14279132 -8.96874009 29.14279132 -7 28 C-6.53101037 25.1840151 -6.53101037 25.1840151 -6.375 21.9375 C-6.30023437 20.83277344 -6.22546875 19.72804688 -6.1484375 18.58984375 C-6.09945312 17.73519531 -6.05046875 16.88054688 -6 16 C-3.36 16 -0.72 16 2 16 C2.16236745 18.58585205 2.28095486 21.16151954 2.375 23.75 C2.42527344 24.47960937 2.47554687 25.20921875 2.52734375 25.9609375 C2.5859375 28.109375 2.5859375 28.109375 2 32 C-2.87283911 36.22900084 -8.07879224 37.73443566 -14.4375 38.3125 C-21.92743676 37.655488 -28.06925061 34.77862957 -33 29 C-35.86679422 24.08985245 -36.94296543 18.63660236 -36 13 C-34.14854311 6.76571578 -31.57815141 2.57843675 -26 -1 C-16.79525391 -5.14885453 -8.91137789 -4.87111881 0 0 Z " fill="#1C9B9D" transform="translate(774,732)"/>
<path d="M0 0 C2.97 0 5.94 0 9 0 C12.47309737 6.53126718 15.3671696 13.1931313 18.03173828 20.08422852 C19.10980544 23.28409831 19.10980544 23.28409831 21 26 C21.29769287 25.2479126 21.59538574 24.4958252 21.90209961 23.72094727 C23.24456006 20.33373158 24.59097474 16.94810172 25.9375 13.5625 C26.40607422 12.37849609 26.87464844 11.19449219 27.35742188 9.97460938 C28.0293457 8.28754883 28.0293457 8.28754883 28.71484375 6.56640625 C29.12855225 5.52427979 29.54226074 4.48215332 29.96850586 3.40844727 C31 1 31 1 32 0 C35.00003445 -0.14177857 37.99757235 -0.04228771 41 0 C38.53726463 7.77222587 35.53382827 15.27308307 32.4375 22.8125 C31.94314453 24.02615234 31.44878906 25.23980469 30.93945312 26.49023438 C29.06726816 31.06809395 27.2128428 35.5743144 25 40 C22.03 40 19.06 40 16 40 C0 3.57032641 0 3.57032641 0 0 Z " fill="#1A9C9C" transform="translate(646,729)"/>
<path d="M0 0 C4.02699013 1.89952365 5.65609953 3.4231347 7.9375 7.25 C9.26747377 11.94402506 9.14633444 14.26181765 8 19 C5.76340027 22.54770992 3.83049485 24.39637418 0 26 C-3.75784338 26.64908204 -7.41510576 26.84103267 -10.84765625 25.01953125 C-13.66285352 22.7715236 -15.97872766 20.47232595 -17 17 C-17.48365156 11.77656319 -16.92346277 8.38519415 -14 4 C-9.56645753 0.08198573 -5.7361161 -1.11058535 0 0 Z " fill="#F7FAFA" transform="translate(927,736)"/>
<path d="M0 0 C10.56 0 21.12 0 32 0 C32 2.31 32 4.62 32 7 C28.04 7 24.08 7 20 7 C20 17.89 20 28.78 20 40 C17.36 40 14.72 40 12 40 C12 29.11 12 18.22 12 7 C8.04 7 4.08 7 0 7 C0 4.69 0 2.38 0 0 Z " fill="#13959A" transform="translate(851,729)"/>
<path d="M0 0 C1.53333984 0.03383789 1.53333984 0.03383789 3.09765625 0.06835938 C5.60829581 0.12701918 8.11587379 0.20904072 10.625 0.3125 C10.7893587 6.1061442 10.51347288 8.84075619 6.625 13.3125 C2.87094289 16.40695055 -0.19074634 18.17199533 -5.0625 18.75 C-9.41371753 18.17531089 -12.14761316 17.20816067 -15.6875 14.625 C-17.375 12.3125 -17.375 12.3125 -18 8.875 C-17.32957643 5.05358567 -16.42917307 3.69136091 -13.40283203 1.32250977 C-9.2124912 -0.76458872 -4.56823344 -0.19157108 0 0 Z " fill="#F7F7F8" transform="translate(530.375,662.6875)"/>
<path d="M0 0 C0.94101562 0.00322266 1.88203125 0.00644531 2.8515625 0.00976562 C3.83640625 0.01814453 4.82125 0.02652344 5.8359375 0.03515625 C6.82851563 0.03966797 7.82109375 0.04417969 8.84375 0.04882812 C11.2995391 0.0606348 13.75520854 0.07710225 16.2109375 0.09765625 C16.44170673 9.4438101 16.44170673 9.4438101 12.2109375 14.09765625 C7.44733377 17.42494562 3.06773396 18.94955392 -2.7890625 18.09765625 C-6.04278938 16.70784078 -9.14895415 15.37787294 -10.7890625 12.09765625 C-11.369173 5.83246288 -11.369173 5.83246288 -8.9140625 2.72265625 C-5.70627951 0.26964573 -3.98199367 -0.02398791 0 0 Z " fill="#F7F7F9" transform="translate(970.7890625,662.90234375)"/>
<path d="M0 0 C3.01886509 2.5385911 4.87319242 4.84762447 6.75 8.3125 C6.75 9.6325 6.75 10.9525 6.75 12.3125 C-4.14 12.3125 -15.03 12.3125 -26.25 12.3125 C-25.31944824 6.72918945 -24.5541055 3.78849969 -20.25 0.3125 C-13.32158135 -3.32986866 -7.02163976 -3.64585141 0 0 Z " fill="#F9F9FA" transform="translate(666.25,639.6875)"/>
<path d="M0 0 C5.07970001 4.1099391 5.69162219 5.76442766 7.6484375 12.61328125 C-3.2415625 12.61328125 -14.1315625 12.61328125 -25.3515625 12.61328125 C-25.3515625 6.61577362 -24.17675224 5.48885622 -20.26953125 1.35546875 C-14.73315116 -3.6735038 -6.33743598 -3.73719232 0 0 Z " fill="#F9FAFA" transform="translate(743.3515625,639.38671875)"/>
<path d="M0 0 C2.64 0 5.28 0 8 0 C8 13.2 8 26.4 8 40 C5.36 40 2.72 40 0 40 C0 26.8 0 13.6 0 0 Z " fill="#109598" transform="translate(707,729)"/>
<path d="M0 0 C11.05328967 -0.60732361 11.05328967 -0.60732361 15.3125 2.125 C17 5 17 5 17.125 8.125 C16 11 16 11 14.125 12.875 C9.36520943 14.58852461 5.04203165 14.18224211 0 14 C0 9.38 0 4.76 0 0 Z " fill="#EDF6F6" transform="translate(975,736)"/>
<path d="M0 0 C2.24151882 2.24151882 2.96301325 4.0067112 4.125 6.9375 C4.47820313 7.81277344 4.83140625 8.68804688 5.1953125 9.58984375 C6 12 6 12 6 15 C2.04 15 -1.92 15 -6 15 C-4.40109514 9.80355921 -2.25861997 4.93387858 0 0 Z " fill="#E6F3F2" transform="translate(612,739)"/>
<path d="M0 0 C0.66 0 1.32 0 2 0 C2.83764268 1.95649397 3.66999059 3.91525556 4.5 5.875 C4.9640625 6.96554687 5.428125 8.05609375 5.90625 9.1796875 C7 12 7 12 7 14 C3.04 14 -0.92 14 -5 14 C-1.85714286 4.42857143 -1.85714286 4.42857143 0 0 Z " fill="#EBF5F5" transform="translate(815,740)"/>
<path d="M0 0 C1.875 0.3125 1.875 0.3125 4 1 C6.71232939 5.06849409 6.30699887 7.16476784 6 12 C5.34 12.66 4.68 13.32 4 14 C3.67 13.34 3.34 12.68 3 12 C1.68 12.33 0.36 12.66 -1 13 C-0.34 12.67 0.32 12.34 1 12 C1.65555119 9.47266765 1.65555119 9.47266765 2 7 C0.02 7 -1.96 7 -4 7 C-4 6.01 -4 5.02 -4 4 C-4.66 3.67 -5.32 3.34 -6 3 C-5 2 -5 2 -2.4375 1.9375 C-1.2309375 1.9684375 -1.2309375 1.9684375 0 2 C0 1.34 0 0.68 0 0 Z " fill="#1C2D4A" transform="translate(688,335)"/>
<path d="M0 0 C0.639375 0.28875 1.27875 0.5775 1.9375 0.875 C5.88410292 2.3247725 9.8874607 3.15778062 14 4 C13.67 5.65 13.34 7.3 13 9 C11.41531323 8.54636829 9.83230076 8.08688548 8.25 7.625 C7.36828125 7.36976563 6.4865625 7.11453125 5.578125 6.8515625 C3.23919428 6.0790066 1.16557438 5.16374324 -1 4 C-0.67 2.68 -0.34 1.36 0 0 Z " fill="#EBEDEF" transform="translate(676,338)"/>
<path d="M0 0 C2.92879371 0.62759865 5.36095629 1.58622659 8 3 C7.67 4.65 7.34 6.3 7 8 C4.69 7.67 2.38 7.34 0 7 C-1.125 2.25 -1.125 2.25 0 0 Z " fill="#CBD6D8" transform="translate(669,361)"/>
<path d="M0 0 C1.32 0.66 2.64 1.32 4 2 C3.67 3.32 3.34 4.64 3 6 C-5.91 6 -14.82 6 -24 6 C-24 5.67 -24 5.34 -24 5 C-15.75 5 -7.5 5 1 5 C0.67 3.35 0.34 1.7 0 0 Z " fill="#374B6B" transform="translate(704,453)"/>
<path d="M0 0 C0.33 0 0.66 0 1 0 C1.04898438 0.99902344 1.09796875 1.99804688 1.1484375 3.02734375 C1.22320313 4.31769531 1.29796875 5.60804688 1.375 6.9375 C1.44460938 8.22527344 1.51421875 9.51304687 1.5859375 10.83984375 C1.72257813 11.88269531 1.85921875 12.92554688 2 14 C2.66 14.33 3.32 14.66 4 15 C2.02 15.99 2.02 15.99 0 17 C0 11.39 0 5.78 0 0 Z " fill="#EE6C19" transform="translate(842,524)"/>
<path d="M0 0 C0 0.66 0 1.32 0 2 C-5.41176471 6 -5.41176471 6 -8 6 C-8 6.66 -8 7.32 -8 8 C-8.66 7.67 -9.32 7.34 -10 7 C-3.18421053 0 -3.18421053 0 0 0 Z " fill="#27A1A3" transform="translate(915,730)"/>
<path d="M0 0 C0 0.66 0 1.32 0 2 C-4.38461538 5 -4.38461538 5 -7 5 C-6.625 3.0625 -6.625 3.0625 -6 1 C-4 0 -4 0 0 0 Z " fill="#344766" transform="translate(659,335)"/>
</svg>
